<mxfile host="app.diagrams.net" modified="2023-06-16T16:39:05.634Z" agent="Mozilla/5.0 (X11; Ubuntu; Linux x86_64; rv:109.0) Gecko/20100101 Firefox/114.0" version="21.3.8" etag="hiPmMPQKxn8LN2F4KeWs" type="github">
  <diagram name="Page-1" id="bCev4Eba-LMXq0j5T8p2">
    <mxGraphModel>
      <root>
        <mxCell id="0" />
        <mxCell id="1" parent="0" />
      </root>
    </mxGraphModel>
  </diagram>
</mxfile>
